<svg version="1.2" xmlns="http://www.w3.org/2000/svg" viewBox="0 0 289 289" >
	<defs>
		<clipPath clipPathUnits="userSpaceOnUse" id="cp1">
			<path d="m0 0h288.67v288.67h-288.67z"/>
		</clipPath>
		<clipPath clipPathUnits="userSpaceOnUse" id="cp2">
			<path d="m24.42 48.43h147.12v205.55h-147.12z"/>
		</clipPath>
	</defs>

	<g id="layer-MC0">
		<g id="Clip-Path: g155" clip-path="url(#cp1)">
			<g id="g155" style="opacity: .15">
				<g id="Clip-Path: path155" clip-path="url(#cp2)">
					<path id="path155" d="m122.92 48.43c-0.78 0-62.42 43.5-62.42 43.5l-35.69 125.62c-1.68 5.88 2.21 11.89 8.74 13.49l92.09 22.54c6.78 1.66 13.74-2.07 15.32-8.23l30.59-119.05-17.83-74.87z" fill="currentColor"/>
				</g>
			</g>
		</g>
		<path id="path159" fill-rule="evenodd" fill="currentColor" d="m157.58 88.68c0 5.54-5 10.04-11.16 10.04-6.17 0-11.16-4.5-11.16-10.04 0-5.54 4.99-10.03 11.16-10.03 1.98 0 3.85 0.46 5.46 1.28 10.82-9.28 28.93-27.18 26.8-41.56-0.26-1.78 1.13-3.42 3.11-3.65 1.99-0.23 3.8 1.01 4.07 2.79 1.67 11.33-6.23 23.72-15.18 33.74l24.79 53.88c0.95 2.07 1.1 4.39 0.43 6.54l-33.59 107.84c-1.38 4.42-5.87 7.32-10.75 7.32q-1.48 0-2.97-0.37l-90.9-22.71c-5.86-1.47-9.3-6.77-7.83-12.07l29.68-107.51c0.6-2.18 2.02-4.14 4-5.51l62.55-43.5c1.58-1.1 3.85-0.84 5.08 0.58 1.22 1.42 0.93 3.46-0.65 4.56l-62.55 43.51c-0.69 0.48-1.19 1.17-1.4 1.93l-29.69 107.5c-0.51 1.86 0.7 3.72 2.75 4.24l90.9 22.71c2.07 0.52 4.23-0.57 4.81-2.44l33.59-107.84c0.23-0.75 0.18-1.57-0.15-2.29l-23.38-50.8c-3.08 3.06-6.08 5.76-8.68 7.98 0.55 1.2 0.86 2.51 0.86 3.88zm25.63 148.26c-1.63 0-3.11-0.99-3.52-2.48-0.47-1.74 0.72-3.5 2.66-3.93l71.67-15.82c2.07-0.46 3.34-2.28 2.89-4.15l-23.44-98.32c-0.17-0.72-0.57-1.35-1.17-1.85l-41.64-34.58c-1.47-1.22-1.56-3.28-0.2-4.6 1.35-1.32 3.65-1.4 5.12-0.18l41.64 34.58c1.69 1.41 2.85 3.23 3.33 5.26l23.44 98.33c1.28 5.33-2.34 10.53-8.24 11.83l-71.68 15.82q-0.43 0.09-0.86 0.09zm37.32-39.21l1.63 5.12c0.64 2.04-0.68 4.11-2.95 4.69-2.26 0.57-4.68-0.55-5.32-2.62l-1.62-5.25c-7.32 1.12-14.61 0.47-21.51-1.73-0.08-0.04-0.11-0.04-0.19-0.07l2.49-9.5c0.34 0.07 0.68 0.14 1.02 0.27 5.36 1.77 10.34 2.61 15.81 2.14l-5.24-16.76c-2.83 0.04-5.44-0.03-7.78-0.27l2.64-10.04q0.91 0.05 1.93 0.1l-1.06-3.39 5.89-22.45c4.11-0.21 8.04 0.27 11.85 1.32 1.73 0.37 3.47 1.32 4.11 3.36 0.83 2.64-0.9 5.29-3.85 6.03q-1.41 0.35-3.05-0.06c-3.89-0.95-7.51-1.39-10.95-1.26l5.1 16.35c15.43-0.41 23.2 3.22 26.07 12.35 2.91 9.36-3.28 17.64-15.02 21.67zm4-18.28c-1.17-3.73-3.96-5.5-11.88-5.7l4.83 15.5c5.88-2.13 8.34-5.69 7.05-9.8zm-82.57-52.92c2.56 0.77 3.92 3.2 3.07 5.5l-0.78 2.12c6.06 2.55 10.72 5.96 14.61 10.22 1.39 1.37 2.36 3.26 1.51 5.56-1.1 2.98-4.62 4.49-7.94 3.5q-1.6-0.48-2.88-1.82c-3-3.13-6.1-5.66-9.45-7.51l-6.8 18.45c14.89 8.49 19.68 16.41 15.88 26.69-3.89 10.57-15.67 14.84-29.66 11.95l-2.12 5.76c-0.85 2.3-3.56 3.52-6.12 2.76-2.57-0.77-4.03-3.23-3.18-5.53l2.19-5.96c-7.72-3.16-14.14-7.94-19.14-14.02-1.42-1.6-1.93-3.45-1.18-5.47 1.1-2.98 4.51-4.52 7.82-3.53 1.29 0.38 2.43 1.15 3.14 2.11 3.82 4.76 7.92 8.44 13.44 11.15l6.98-18.92c-14.25-8.3-19.57-15.75-15.57-26.6 3.79-10.28 15.5-14.68 29.21-11.66l0.74-2.02c0.85-2.3 3.66-3.49 6.23-2.73zm-16.36 31.48l6.27-17c-7.05-1.46-11.67 0.79-13.23 5.01-1.49 4.04-0.38 7.14 6.96 11.99zm3.52 15.86l-6.45 17.49c7.09 1.36 11.96-0.59 13.66-5.21 1.56-4.22 0.17-7.52-7.21-12.28z"/>
	</g>
</svg>