<svg version="1.2" xmlns="http://www.w3.org/2000/svg" viewBox="0 0 289 289" >
	<defs>
		<clipPath clipPathUnits="userSpaceOnUse" id="cp1">
			<path d="m0 0h288.67v288.67h-288.67z"/>
		</clipPath>
		<clipPath clipPathUnits="userSpaceOnUse" id="cp2">
			<path d="m65.31 57.32h125.4v155.99h-125.4z"/>
		</clipPath>
	</defs>

	<g id="Clip-Path: g93" clip-path="url(#cp1)">
		<g id="g93" style="opacity: .15">
			<g id="Clip-Path: path93" clip-path="url(#cp2)">
				<path id="path93" fill="currentColor" d="m190.71 202.76c0.02 2.47-0.23 4.96-0.88 7.37q-3.4 1.03-6.49 2.03-1.85 0.59-3.54 1.15l-14.56-3.01c2.11-0.19 4.22-0.65 6.25-1.36 2.28-0.8 5.05-1.74 8.14-2.75 0.59-2.4 1.07-7.3-3.26-11.36q-1.81-1.77-5-3.22c-4.61-2.05-14.8-4.75-26.64-7.52-21.75-5.08-49.1-10.36-58.06-12.07l-6.53 20.68-6.72-1.41 7.7-24.4 1.59-5.05c-1.71-1.29-5.35-3.55-11.74-5.44q1.8-2.86 3.87-5.92c6.87-10.19 15.83-21.87 27.38-34.24l2.05-2.2-37.19-44.28c-1.36-1.64-1.97-3.69-1.72-5.8 0.27-2.11 1.36-3.96 3.08-5.21 2.93-2.11 6.99-1.86 9.63 0.61l23.71 22.22 12.62-15.17 3.01-3.64q0.73-0.89 1.8-1.24h0.02q0.52-0.16 1.09-0.19c1.15-0.02 2.22 0.42 3 1.26l16.82 18.04 22.84-17.66c2.55-1.99 6.11-1.8 8.45 0.44 2.56 2.42 2.72 6.4 0.36 9.04l-18.94 21.09-3.48 3.88-2.66 2.95-11.15 12.43 0.71 0.98 18.88 26.02 5.11 7.03 4.06 5.59 6.61 9.12 0.71 0.97 10.95 15.08c0.33 0.55 2.55 4.19 4.58 9.3-1.03 1.88-2.49 3.51-4.29 4.85 3.2 3.92 4.12 8.35 3.95 12.16q1.89-0.59 3.88-1.15z"/>
			</g>
		</g>
	</g>
	<g id="layer-MC0">
		<path id="path82" fill-rule="evenodd" fill="currentColor" d="m207.28 100.38h-15.09l41.86 57.69c0.62 0.97 14.39 22.74 7.14 41.05 8.29 4.27 11.24 11.03 11.42 11.49 0.72 1.72-0.06 3.7-1.77 4.44l-82.72 36.54c-3.57 1.57-7.41 2.36-11.21 2.36-3.14 0-6.26-0.52-9.3-1.61l-77.64-27.5-2.6 8.23c-0.46 1.42-1.76 2.38-3.26 2.38h-24.91c-1.88 0-3.41-1.53-3.41-3.41v-82.19c0-1.82 1.44-3.33 3.29-3.41 16.51-0.56 28 1.47 35.76 4.04 10.4 3.43 14.15 7.83 14.42 8.14 0.74 0.9 0.97 2.09 0.63 3.2l-1.15 3.65c1.74 0.33 3.97 0.75 6.6 1.27 3.31-8.46 15-34.66 43.47-66.36h-12.55c-1.88 0-3.41-1.53-3.41-3.41 0-1.89 1.53-3.42 3.41-3.42h10.94l-29.56-35.18c-1.58-1.88-2.63-4.12-3.1-6.49q-0.44-2.24-0.17-4.54c0.49-3.95 2.62-7.56 5.85-9.9 2.19-1.58 4.71-2.47 7.27-2.68q0.58-0.05 1.17-0.05c3.52 0 7.03 1.29 9.76 3.8q0.04 0.04 0.09 0.09l18.43 17.26 11.01-13.25c1.71-2.05 4.11-3.38 6.73-3.76q0.61-0.09 1.23-0.11c3.08-0.12 6.06 1.16 8.17 3.41l12.59 13.49 2.88-2.23 15.02-11.62c4.56-3.53 10.66-3.71 15.33-0.7q1.07 0.69 2.03 1.6 1.35 1.3 2.26 2.83c2.93 4.89 2.45 11.24-1.55 15.7l-7.84 8.73-21.18 23.6h13.66c1.88 0 3.41 1.53 3.41 3.42 0 1.88-1.53 3.41-3.41 3.41zm-24.4 91.37c3.2 3.92 4.12 8.35 3.96 12.16q1.88-0.59 3.87-1.15c8.6-2.51 18.27-4.98 27.16-6.42 6.8-1.11 12.37-0.76 16.91 0.39q0.01 0.01 0.01 0.01 0.89-2.22 1.28-4.53c2.42-13.77-6.99-29.21-7.72-30.38l-44.59-61.45h-35.69l-0.08 0.08c-4.94 5.28-9.4 10.44-13.43 15.42-19.8 24.41-29.13 44.31-32.38 52.18 18.07 3.58 45.98 9.36 62.13 14v-11.49c-12.2-3.16-17.87-7.74-17.87-17.18 0-6.09 3.31-10.9 8.71-13.58 2.53-1.3 5.5-2.1 8.83-2.37v-1.76c0-1.98 1.67-3.57 3.68-3.57 1.99 0 3.58 1.59 3.58 3.57v1.85c4.94 0.58 9.11 2.15 12.96 4.58 1.32 0.75 2.49 2.01 2.49 4.02 0 2.59-2.1 4.58-4.67 4.58q-1.25 0-2.51-0.75c-2.91-1.74-5.76-3-8.58-3.66v16.03q0.35 0.09 0.71 0.18c12.18 3.17 17.39 8.23 17.39 17 0 2.76-0.65 5.25-1.86 7.39-1.03 1.88-2.49 3.51-4.29 4.85zm-110.86 26.6l77.88 27.57c5.06 1.8 10.54 1.59 15.46-0.59l79.13-34.93c-3.05-3.81-10.42-9.79-25.51-7.35-9.56 1.55-20.09 4.34-29.15 7.08q-3.29 0.99-6.28 1.96-0.1 0.04-0.21 0.07-0.02 0.01-0.04 0.01-1.83 0.59-3.5 1.14c-2.26 0.75-4.31 1.46-6.07 2.07-6.23 2.2-12.93 2.47-19.31 0.86l-35.63-9.08c-1.82-0.46-2.93-2.33-2.47-4.15 0.3-1.15 1.14-2.01 2.18-2.38h0.02c0.61-0.21 1.28-0.25 1.95-0.09l10.3 2.62 25.32 6.47c3.01 0.77 6.09 0.98 9.15 0.67 2.11-0.19 4.22-0.65 6.25-1.36 2.28-0.8 5.05-1.74 8.14-2.75q0 0 0 0c0.59-2.4 1.07-7.3-3.26-11.36q-1.81-1.77-5-3.22c-4.61-2.05-14.8-4.75-26.64-7.52-21.75-5.08-49.1-10.36-58.06-12.07q0 0 0 0l-6.53 20.67-8.12 25.66zm92.29-72.56q-2.37 0.23-4.06 1.05c-2.63 1.21-3.95 3.37-3.95 5.96 0 3.5 1.59 5.68 8.01 7.77zm14.86 34.3c0-3.66-1.82-5.92-8.24-7.93v11.95q1.85 0.66 3.2 1.25 0.72 0.32 1.4 0.67c2.39-1.25 3.64-3.3 3.64-5.94zm-98.05-13.21l1.59-5.04c-1.71-1.3-5.36-3.56-11.74-5.44-6.4-1.91-15.57-3.41-28.36-3.22v75.44h19.01l2.88-9.11q0.03-0.09 0.06-0.18l0.01-0.02 8.85-28.02 7.59-24.05q0.05-0.18 0.11-0.35zm136.09-119.26c-1.11-1.07-2.5-1.67-3.93-1.79q-0.28-0.02-0.56-0.02c-1.39 0-2.79 0.45-3.98 1.37l-22.82 17.66-16.83-18.04q-0.03-0.03-0.07-0.07c-0.77-0.79-1.81-1.2-2.92-1.18-1.14 0.04-2.17 0.54-2.91 1.42l-10.04 12.09-5.6 6.73-2.3-2.16-21.41-20.06q-1.03-0.95-2.27-1.47-0.49-0.2-1-0.33c-1.26-0.33-2.59-0.33-3.85 0.01q-1.33 0.35-2.5 1.19-1.13 0.82-1.88 1.94-0.82 1.24-1.12 2.74-0.05 0.26-0.08 0.52c-0.26 2.11 0.35 4.17 1.72 5.8l33.24 39.58h38.35l24.39-27.17 8.72-9.72q0.54-0.6 0.9-1.28c1.35-2.52 0.92-5.69-1.25-7.76z"/>
	</g>
</svg>